<svg width="27" height="25" viewBox="0 0 27 25" fill="none" xmlns="http://www.w3.org/2000/svg">
<path fill-rule="evenodd" clip-rule="evenodd" d="M19.7079 24.0081C18.8079 24.0081 18.0079 23.8081 17.2079 23.6081C11.6079 22.0081 7.40792 18.5081 4.00792 13.9081C2.70792 12.1081 1.50792 10.3081 1.10792 8.2081C0.707918 5.6081 1.40792 3.4081 3.40792 1.6081C4.00792 1.0081 5.90792 0.808104 6.60792 1.2081C6.80792 1.3081 7.00792 1.5081 7.20792 1.8081C7.90792 3.5081 8.60792 5.1081 9.30792 6.8081C9.40792 7.1081 9.40792 7.4081 9.20792 7.8081C8.80792 8.5081 8.20792 9.2081 7.70792 9.8081C7.20792 10.2081 7.20792 10.7081 7.50792 11.2081C9.50792 14.5081 12.2079 16.9081 15.8079 18.3081C16.4079 18.5081 16.8079 18.4081 17.1079 18.0081C17.7079 17.3081 18.3079 16.5081 18.9079 15.8081C19.3079 15.3081 19.7079 15.2081 20.3079 15.4081C21.5079 15.9081 22.7079 16.5081 23.8079 17.1081C24.1079 17.2081 24.3079 17.3081 24.6079 17.5081C25.8079 18.1081 25.8079 18.1081 25.7079 19.4081C25.5079 22.0081 23.6079 23.3081 21.3079 23.9081C20.7079 24.0081 20.2079 24.0081 19.7079 24.0081Z" stroke="#4482C1" stroke-miterlimit="10"/>
</svg>
