<svg width="212" height="61" viewBox="0 0 212 61" fill="none" xmlns="http://www.w3.org/2000/svg"><path d="M73.766 28.172V2.844h9.273a9.975 9.975 0 0 1 4.384.8 6.312 6.312 0 0 1 3.721 5.708 5.708 5.708 0 0 1-3.04 5.299 5.553 5.553 0 0 1 4.677 5.845 7.247 7.247 0 0 1-5.592 7.072 16.172 16.172 0 0 1-4.831.545h-8.592M85.124 7.17a5.436 5.436 0 0 0-2.377-.429h-4.656v6.605h4.364a5.591 5.591 0 0 0 2.844-.585 3.253 3.253 0 0 0-.195-5.591m1.345 10.462a6.955 6.955 0 0 0-2.884-.41h-5.474v7.034h5.182a7.33 7.33 0 0 0 3.215-.585 3.254 3.254 0 0 0 1.85-3.136 3.059 3.059 0 0 0-1.89-2.825v-.078Zm35.939-14.749h-4.326v25.27h4.326V2.882Zm31.484 0h-4.325v25.27h4.325V2.882Zm13.99-.214a17.262 17.262 0 0 1 7.014 1.422v4.15a15.586 15.586 0 0 0-7.053-1.773c-2.376 0-4.403.74-4.403 2.728 0 5.182 13.015 3.097 13.015 11.69 0 4.714-3.897 7.792-9.742 7.792a15.932 15.932 0 0 1-8.552-2.26l1.792-3.526a13.308 13.308 0 0 0 6.897 1.948c2.611 0 5.026-.993 5.026-3.292 0-5.416-12.878-3.04-12.878-11.69-.117-4.656 3.566-7.189 8.884-7.189Zm29.011 25.503v-10.89h-12.274v10.89h-4.326V2.883h4.326v10.365h12.274V2.883h4.344v25.289h-4.344ZM83.33 32.614c2.42-.026 4.816.486 7.013 1.5l-1.305 3.682a11.689 11.689 0 0 0-5.26-1.266c-4.793 0-7.793 4.072-7.793 9 0 4.93 2.805 9.06 7.793 9.06a11.496 11.496 0 0 0 5.26-1.266l1.305 3.682a16.385 16.385 0 0 1-7.013 1.48c-7.56 0-11.885-5.279-11.885-12.877 0-7.072 4.326-12.995 11.885-12.995Zm94.84 0c2.42-.027 4.816.485 7.013 1.5l-1.305 3.682a11.688 11.688 0 0 0-5.26-1.266c-4.793 0-7.793 4.072-7.793 9 0 4.93 2.805 9.06 7.793 9.06a11.495 11.495 0 0 0 5.26-1.266l1.305 3.682a16.344 16.344 0 0 1-7.013 1.48c-7.56 0-11.904-5.279-11.904-12.877 0-7.072 4.344-12.995 11.904-12.995Zm-63.05 12.858c0 7.599-4.832 13.034-11.962 13.034-7.131 0-11.963-5.26-11.963-12.839 0-7.578 4.832-13.034 11.963-13.034 7.13 0 11.962 5.26 11.962 12.84Zm-4.559 0c0-5.513-3.137-9.04-7.403-9.04-4.267 0-7.384 3.585-7.384 9.157s3.156 9.06 7.403 9.06 7.365-3.546 7.365-9.099l.019-.078Zm7.486 3.138V32.847h4.345v15.917c0 4.208 2.259 5.845 5.844 5.845 3.585 0 5.845-1.578 5.845-5.845V32.848h4.325v15.761c0 6.877-3.896 9.897-10.287 9.897-6.39 0-10.072-3.02-10.072-9.897Zm28.556-8.885c0 .838.116 2.182.116 3.37v15.041h-4.422V32.81h4.676l11.689 17.223c0-.838-.117-2.183-.117-3.371V32.828h4.326v25.328h-3.897l-12.371-18.43Zm46.316-6.877h-4.325v25.269h4.325v-25.27Zm3.956 25.269v-25.27h4.345v21.354h9.877v3.916h-14.222ZM146.234 2.903h-20.515v3.935h8.085v21.334h4.325V6.838h8.105V2.903Zm-35.958 25.269c-3.682-7.637-4.637-9.742-6.176-9.742h-4.013v9.742h-4.306V2.844h8.553c6.527 0 9.001 3.449 9.001 7.287a6.448 6.448 0 0 1-4.676 6.488c1.15.643 2.377 3.039 6.605 11.475l-4.988.078ZM104.568 6.74h-4.481v7.676h4.286c3.117 0 4.559-1.617 4.559-3.896 0-2.28-1.344-3.702-4.364-3.702V6.74Z" fill="#004B84"/><path d="M46.542 28.912c7.984 0 14.456-6.472 14.456-14.456C60.998 6.472 54.526 0 46.542 0c-7.984 0-14.456 6.472-14.456 14.456 0 7.984 6.472 14.456 14.456 14.456Zm-32.086 0c7.984 0 14.456-6.472 14.456-14.456C28.912 6.472 22.44 0 14.456 0 6.472 0 0 6.472 0 14.456c0 7.984 6.472 14.456 14.456 14.456ZM46.542 61c7.984 0 14.456-6.472 14.456-14.456 0-7.984-6.472-14.456-14.456-14.456-7.984 0-14.456 6.472-14.456 14.456C32.086 54.528 38.558 61 46.542 61Zm-32.086 0c7.984 0 14.456-6.472 14.456-14.456 0-7.984-6.472-14.456-14.456-14.456C6.472 32.088 0 38.56 0 46.544 0 54.528 6.472 61 14.456 61Z" fill="#00A2E6"/></svg>