<svg width="24" height="24" viewBox="0 0 24 24" fill="none" xmlns="http://www.w3.org/2000/svg"><g clip-path="url(#clip0_1309_1871)"><path d="M12 24c6.624 0 12-5.376 12-12S18.624 0 12 0 0 5.376 0 12s5.376 12 12 12Z" fill="#F8DC4A"/><path opacity=".28" d="M20.299 3.324 2.719 19.596c.252.312.516.6.804.888L21.127 4.188c-.276-.3-.552-.588-.828-.864Zm3.007 4.62a12.202 12.202 0 0 0-1.332-2.652L4.563 21.42c.78.612 1.632 1.128 2.532 1.536l16.2-15.012h.012ZM.648 15.912c.348.996.816 1.956 1.416 2.832l17.412-16.14A11.984 11.984 0 0 0 16.764.972L.648 15.912Z" fill="#fff"/><path d="M11.997 22.044c5.544 0 10.044-4.5 10.044-10.044 0-5.544-4.488-10.056-10.044-10.056S1.953 6.444 1.953 12c0 5.556 4.5 10.044 10.044 10.044Z" fill="#EC8103"/><path d="M12 21c4.968 0 9-4.032 9-9s-4.032-9-9-9-9 4.032-9 9 4.032 9 9 9Z" fill="#F90"/><path opacity=".2" d="M3.25 13.944a8.917 8.917 0 0 0 1.14 2.796L17.314 4.788a9.063 9.063 0 0 0-2.7-1.356L3.25 13.944Zm14.85-8.52L4.984 17.568c.228.288.48.564.756.828L18.868 6.228a8.226 8.226 0 0 0-.78-.804h.012Zm2.61 4.488a8.93 8.93 0 0 0-1.08-2.616L6.72 19.248c.768.564 1.62.996 2.52 1.284l11.484-10.62h-.012Z" fill="#fff"/><path d="M18.276 11.712a1.263 1.263 0 0 0-.696-2.16l-3.024-.444a.687.687 0 0 1-.504-.36L12.696 6a1.263 1.263 0 0 0-1.128-.708c-.48 0-.912.264-1.128.708L9.084 8.748a.658.658 0 0 1-.504.36l-3.024.444a1.26 1.26 0 0 0-1.02.864 1.27 1.27 0 0 0 .324 1.296l2.184 2.136a.672.672 0 0 1 .192.588l-.516 3.012c-.084.48.108.948.504 1.236.396.288.9.324 1.332.096l2.712-1.428a.686.686 0 0 1 .612 0l2.712 1.428c.192.096.384.144.588.144.264 0 .516-.084.744-.24.396-.288.588-.756.504-1.236l-.516-3.012a.672.672 0 0 1 .192-.588l2.184-2.136h-.012Z" fill="#EC8103"/><path d="m13.02 5.376 1.357 2.736c.143.288.407.48.72.528l3.024.444a.96.96 0 0 1 .527 1.644l-2.183 2.136a.938.938 0 0 0-.276.852l.515 3.012c.133.792-.695 1.392-1.392 1.02l-2.711-1.428a.991.991 0 0 0-.9 0l-2.713 1.428a.959.959 0 0 1-1.392-1.02l.516-3.012a.97.97 0 0 0-.276-.852l-2.184-2.136c-.576-.552-.252-1.524.528-1.644l3.024-.444a.942.942 0 0 0 .72-.528l1.357-2.736c.348-.72 1.367-.72 1.727 0h.013Z" fill="#F9DF58"/></g><defs><clipPath id="clip0_1309_1871"><path fill="#fff" d="M0 0h24v24H0z"/></clipPath></defs></svg>