<svg width="20" height="20" viewBox="0 0 20 20" fill="none" xmlns="http://www.w3.org/2000/svg"><path d="M10 0C4.5 0 0 4.5 0 10s4.5 10 10 10 10-4.5 10-10S15.5 0 10 0Zm.833 13.417v-2.584h2.5c-.083.917-.166 1.834-.416 2.75-.667-.083-1.334-.166-2.084-.166Zm1.667 1.75c-.417 1.083-1 2.083-1.667 2.916v-3c.584 0 1.084 0 1.667.084Zm-1.667-6v-2.5c.75 0 1.417-.084 2.084-.167.166.833.333 1.75.333 2.667h-2.417Zm0-4.167V1.917c.667.833 1.25 1.833 1.667 2.916-.583.084-1.083.167-1.667.167Zm2.25-2.75c1 .417 2 1 2.75 1.75-.5.167-1.083.333-1.666.5-.334-.75-.667-1.5-1.084-2.25Zm-6 11.333c-.166-.833-.333-1.75-.416-2.75h2.5v2.584c-.75 0-1.417.083-2.084.166Zm2.084 1.5v3c-.667-.833-1.25-1.75-1.667-2.916.583-.084 1.083-.084 1.667-.084Zm-2.5-5.916C6.75 8.25 6.833 7.333 7 6.5c.75.083 1.417.167 2.167.167v2.5h-2.5ZM7.5 4.833c.417-1.083 1-2.083 1.667-2.916V5c-.584 0-1.084-.083-1.667-.167Zm-1.667-.25a42.087 42.087 0 0 1-1.666-.5c.75-.75 1.75-1.416 2.75-1.75C6.5 3 6.167 3.75 5.833 4.583Zm-.416 1.584c-.25.916-.417 1.916-.417 3H1.75c.167-1.417.583-2.667 1.333-3.75.667.25 1.5.583 2.334.75Zm0 7.75c-.834.166-1.584.416-2.334.75a7.565 7.565 0 0 1-1.333-3.834H5c0 1.084.167 2.084.417 3.084Zm.416 1.583c.25.833.667 1.583 1.084 2.25-1-.417-1.917-1-2.75-1.75.583-.25 1.083-.417 1.666-.5Zm8.334 0c.583.167 1.166.333 1.666.5-.75.75-1.666 1.333-2.75 1.75.417-.75.75-1.5 1.084-2.25Zm.416-1.583c.25-1 .334-2 .417-3.084h3.25c-.167 1.417-.583 2.667-1.333 3.834-.75-.334-1.5-.584-2.334-.75ZM15 9.167c-.083-1.084-.167-2.084-.417-3a10.905 10.905 0 0 0 2.334-.75c.75 1.083 1.25 2.416 1.333 3.75H15Z" fill="#BE1E2D"/></svg>