<?xml version="1.0" encoding="UTF-8"?><svg xmlns="http://www.w3.org/2000/svg" xmlns:xlink="http://www.w3.org/1999/xlink"><symbol viewBox="0 0 16 16" id="alert-triangle-outline" xmlns="http://www.w3.org/2000/svg"><path d="M8.002 8.647V5.422m0 5.616v.028m4.031 2.687H3.97a2.42 2.42 0 01-2.324-1.743c-.125-.43.029-.878.263-1.26L5.941 3.4c.945-1.536 3.176-1.536 4.12 0l4.033 7.352c.234.38.388.829.263 1.259a2.42 2.42 0 01-2.324 1.743z" style="stroke:var(--color, currentColor)"/></symbol><symbol viewBox="0 0 18 14" id="arrow-right" xmlns="http://www.w3.org/2000/svg"><path d="M17.707 6.293l-6-6a1 1 0 00-1.414 1.414L14.586 6H1a1 1 0 000 2h13.586l-4.293 4.293a1 1 0 101.414 1.414l6-6a1 1 0 000-1.414z"/></symbol><symbol viewBox="0 0 14 14" id="calendar-outline" xmlns="http://www.w3.org/2000/svg"><path d="M2.266 5h9.187m-8-3.833v1m6.688-1v1m1.968 3v4.666a3 3 0 01-3 3h-4.5a3 3 0 01-3-3V5.167a3 3 0 013-3h4.5a3 3 0 013 3z" style="stroke-width:var(--stroke-width, 1.5px)"/></symbol><symbol viewBox="0 0 20 20" id="close" xmlns="http://www.w3.org/2000/svg"><path d="M1.03 0a1 1 0 00-.737.293 1 1 0 000 1.414L8.586 10 .293 18.293a1 1 0 000 1.414 1 1 0 001.414 0L10 11.414l8.293 8.293a1 1 0 001.414 0 1 1 0 000-1.414L11.414 10l8.293-8.293a1 1 0 000-1.414A1 1 0 0019.03 0a1 1 0 00-.736.293L10 8.586 1.707.293A1 1 0 001.03 0z"/></symbol><symbol viewBox="0 0 27 25" id="phone-outline" xmlns="http://www.w3.org/2000/svg"><path clip-rule="evenodd" d="M19.708 24.008c-.9 0-1.7-.2-2.5-.4-5.6-1.6-9.8-5.1-13.2-9.7-1.3-1.8-2.5-3.6-2.9-5.7-.4-2.6.3-4.8 2.3-6.6.6-.6 2.5-.8 3.2-.4.2.1.4.3.6.6.7 1.7 1.4 3.3 2.1 5 .1.3.1.6-.1 1-.4.7-1 1.4-1.5 2-.5.4-.5.9-.2 1.4 2 3.3 4.7 5.7 8.3 7.1.6.2 1 .1 1.3-.3.6-.7 1.2-1.5 1.8-2.2.4-.5.8-.6 1.4-.4 1.2.5 2.4 1.1 3.5 1.7.3.1.5.2.8.4 1.2.6 1.2.6 1.1 1.9-.2 2.6-2.1 3.9-4.4 4.5-.6.1-1.1.1-1.6.1z" stroke-miterlimit="10"/></symbol><symbol viewBox="0 0 22 26" id="pin-outline" xmlns="http://www.w3.org/2000/svg"><path d="M10.8 1C5.4 1 1 5.4 1 10.8c0 7.6 9.5 14.1 9.8 14.2.3-.1 9.8-5.8 9.8-14.2 0-5.4-4.4-9.8-9.8-9.8zm0 14.4c-2.8 0-5.2-2.3-5.2-5.2C5.6 7.3 7.9 5 10.8 5c2.9 0 5.2 2.3 5.2 5.2 0 2.9-2.4 5.2-5.2 5.2z" stroke-miterlimit="10"/></symbol><symbol viewBox="0 0 26 26" id="ticket-outline" xmlns="http://www.w3.org/2000/svg"><path d="M11.3 6.7l8.1 8.1m3.8-7.4c-1.3 1.3-3.3 1.3-4.6 0-1.3-1.3-1.3-3.3 0-4.6L16.8 1 1 16.6l1.8 1.8c1.3-1.3 3.3-1.3 4.6 0 1.3 1.3 1.3 3.3 0 4.6l1.9 1.9L25 9.2l-1.8-1.8z" stroke-miterlimit="10"/></symbol><symbol viewBox="0 0 25 25" id="time-outline" xmlns="http://www.w3.org/2000/svg"><path d="M12.5 4.6v7.9h6.4m5.1 0C24 18.9 18.9 24 12.5 24S1 18.9 1 12.5 6.1 1 12.5 1 24 6.1 24 12.5z" stroke-miterlimit="10"/></symbol></svg>