<svg width="212" height="61" viewBox="0 0 212 61" fill="none" xmlns="http://www.w3.org/2000/svg">
<path d="M73.7656 28.1718V2.84445H83.0393C84.5421 2.77678 86.0407 3.04985 87.4229 3.64324C88.5243 4.13901 89.4604 4.94036 90.1199 5.95219C90.7795 6.96402 91.135 8.14385 91.1441 9.35164C91.1916 10.4321 90.9311 11.5039 90.393 12.4421C89.8549 13.3802 89.0614 14.1463 88.1048 14.6509C89.4727 14.8666 90.7105 15.5857 91.5756 16.667C92.4407 17.7483 92.8704 19.1139 92.7807 20.4957C92.7844 22.1328 92.2337 23.7229 91.2184 25.007C90.2031 26.2912 88.7829 27.1938 87.1891 27.5679C85.6153 27.9922 83.9863 28.1761 82.3575 28.1134H73.7656M85.124 7.16959C84.3739 6.85028 83.5615 6.70379 82.7471 6.74097H78.0908V13.3456H82.4549C83.4379 13.4047 84.4192 13.203 85.2993 12.7611C85.7742 12.4562 86.1616 12.0331 86.4235 11.5332C86.6854 11.0333 86.8128 10.4739 86.7932 9.9099C86.7735 9.34591 86.6075 8.79673 86.3115 8.31629C86.0154 7.83585 85.5995 7.44068 85.1045 7.16959M86.4488 17.6318C85.5273 17.2934 84.5446 17.154 83.5654 17.2226H78.0908V24.2558H83.2731C84.375 24.3048 85.4737 24.1051 86.4878 23.6714C87.0739 23.3928 87.5634 22.9452 87.8932 22.3862C88.223 21.8273 88.3781 21.1825 88.3386 20.5347C88.3383 19.9297 88.1586 19.3384 87.8222 18.8355C87.4858 18.3327 87.0079 17.9409 86.4488 17.7097V17.6318Z" fill="#004B84"/>
<path d="M122.388 2.88342H118.062V28.1524H122.388V2.88342Z" fill="#004B84"/>
<path d="M153.872 2.88342H149.547V28.1524H153.872V2.88342Z" fill="#004B84"/>
<path d="M167.862 2.66899C170.274 2.64791 172.663 3.1324 174.876 4.09123V8.24102C172.698 7.10221 170.281 6.4947 167.823 6.46811C165.447 6.46811 163.42 7.20844 163.42 9.19567C163.42 14.378 176.435 12.2934 176.435 20.8852C176.435 25.6 172.538 28.6783 166.693 28.6783C163.686 28.7472 160.721 27.9637 158.141 26.4183L159.933 22.8919C162.011 24.1599 164.396 24.8337 166.83 24.8402C169.441 24.8402 171.856 23.8466 171.856 21.5476C171.856 16.1315 158.978 18.5084 158.978 9.85808C158.861 5.20174 162.544 2.66899 167.862 2.66899Z" fill="#004B84"/>
<path d="M196.873 28.1719V17.2811H184.599V28.1719H180.273V2.88342H184.599V13.2482H196.873V2.88342H201.217V28.1719H196.873Z" fill="#004B84"/>
<path d="M83.3297 32.6139C85.7499 32.5878 88.1456 33.1003 90.3434 34.114L89.0381 37.7962C87.4078 36.9685 85.6062 36.5348 83.7778 36.5299C78.9851 36.5299 75.9848 40.6017 75.9848 45.5308C75.9848 50.4599 78.7903 54.5902 83.7778 54.5902C85.607 54.5927 87.4104 54.1585 89.0381 53.3239L90.3434 57.0061C88.1435 58.0113 85.7483 58.5169 83.3297 58.4868C75.7705 58.4868 71.4453 53.207 71.4453 45.6088C71.4453 38.5366 75.7705 32.6139 83.3297 32.6139Z" fill="#004B84"/>
<path d="M178.17 32.614C180.59 32.5866 182.986 33.0991 185.183 34.1141L183.878 37.7963C182.248 36.9686 180.446 36.5349 178.618 36.53C173.825 36.53 170.825 40.6018 170.825 45.5309C170.825 50.46 173.63 54.5903 178.618 54.5903C180.447 54.5928 182.25 54.1586 183.878 53.324L185.183 57.0062C182.984 58.0126 180.588 58.5183 178.17 58.4869C170.61 58.4869 166.266 53.2071 166.266 45.6089C166.266 38.5367 170.61 32.614 178.17 32.614Z" fill="#004B84"/>
<path d="M115.12 45.4724C115.12 53.0706 110.288 58.5063 103.158 58.5063C96.027 58.5063 91.1953 53.246 91.1953 45.6672C91.1953 38.0885 96.027 32.6334 103.158 32.6334C110.288 32.6334 115.12 37.8937 115.12 45.4724ZM110.561 45.4724C110.561 39.9588 107.424 36.4325 103.158 36.4325C98.8909 36.4325 95.7737 40.0173 95.7737 45.5893C95.7737 51.1613 98.9299 54.6487 103.177 54.6487C107.424 54.6487 110.542 51.1029 110.542 45.5503L110.561 45.4724Z" fill="#004B84"/>
<path d="M118.047 48.6091V32.8477H122.392V48.765C122.392 52.9732 124.651 54.6097 128.236 54.6097C131.821 54.6097 134.081 53.0316 134.081 48.765V32.8477H138.406V48.6091C138.406 55.4865 134.51 58.5063 128.119 58.5063C121.729 58.5063 118.047 55.4865 118.047 48.6091Z" fill="#004B84"/>
<path d="M146.603 39.7252C146.603 40.5629 146.719 41.9072 146.719 43.0957V58.1362H142.297V32.8088H146.973L158.662 50.0315C158.662 49.1937 158.545 47.8494 158.545 46.661V32.8283H162.871V58.1557H158.974L146.603 39.7252Z" fill="#004B84"/>
<path d="M192.919 32.8477H188.594V58.1166H192.919V32.8477Z" fill="#004B84"/>
<path d="M196.875 58.1166V32.8477H201.22V54.2006H211.097V58.1166H196.875Z" fill="#004B84"/>
<path d="M146.234 2.90283H125.719V6.83832H133.804V28.1718H138.129V6.83832H146.234V2.90283Z" fill="#004B84"/>
<path d="M110.276 28.1718C106.594 20.5346 105.639 18.4304 104.1 18.4304H100.087V28.1718H95.7812V2.84436H104.334C110.861 2.84436 113.335 6.29278 113.335 10.1309C113.399 11.5806 112.973 13.0097 112.124 14.187C111.276 15.3643 110.055 16.221 108.659 16.6186C109.809 17.2615 111.036 19.6579 115.264 28.0938L110.276 28.1718ZM104.568 6.74088H100.087V14.417H104.373C107.49 14.417 108.932 12.8 108.932 10.5205C108.932 8.24104 107.588 6.81881 104.568 6.81881V6.74088Z" fill="#004B84"/>
<path d="M46.542 28.9122C54.5259 28.9122 60.9981 22.44 60.9981 14.4561C60.9981 6.47222 54.5259 0 46.542 0C38.5582 0 32.0859 6.47222 32.0859 14.4561C32.0859 22.44 38.5582 28.9122 46.542 28.9122Z" fill="#00A2E6"/>
<path d="M14.4561 28.9122C22.44 28.9122 28.9122 22.44 28.9122 14.4561C28.9122 6.47222 22.44 0 14.4561 0C6.47222 0 0 6.47222 0 14.4561C0 22.44 6.47222 28.9122 14.4561 28.9122Z" fill="#00A2E6"/>
<path d="M46.542 61C54.5259 61 60.9981 54.5277 60.9981 46.5439C60.9981 38.56 54.5259 32.0878 46.542 32.0878C38.5582 32.0878 32.0859 38.56 32.0859 46.5439C32.0859 54.5277 38.5582 61 46.542 61Z" fill="#00A2E6"/>
<path d="M14.4561 61C22.44 61 28.9122 54.5278 28.9122 46.5439C28.9122 38.56 22.44 32.0878 14.4561 32.0878C6.47222 32.0878 0 38.56 0 46.5439C0 54.5278 6.47222 61 14.4561 61Z" fill="#00A2E6"/>
</svg>
