<svg width="24" height="24" viewBox="0 0 24 24" fill="none" xmlns="http://www.w3.org/2000/svg">
<g clip-path="url(#clip0_1309_1871)">
<path d="M12 24C18.624 24 24 18.624 24 12C24 5.376 18.624 0 12 0C5.376 0 0 5.376 0 12C0 18.624 5.376 24 12 24Z" fill="#F8DC4A"/>
<g opacity="0.28">
<path opacity="0.28" d="M20.2987 3.32397L2.71875 19.596C2.97075 19.908 3.23475 20.196 3.52275 20.484L21.1267 4.18797C20.8507 3.88797 20.5747 3.59997 20.2987 3.32397Z" fill="white"/>
<path opacity="0.28" d="M23.3065 7.94399C22.9705 7.00799 22.5265 6.11999 21.9745 5.29199L4.5625 21.42C5.3425 22.032 6.1945 22.548 7.0945 22.956L23.2945 7.94399H23.3065Z" fill="white"/>
<path opacity="0.28" d="M0.648438 15.912C0.996437 16.908 1.46444 17.868 2.06444 18.744L19.4764 2.60399C18.6484 1.94399 17.7364 1.39198 16.7644 0.971985L0.648438 15.912Z" fill="white"/>
</g>
<path d="M11.9971 22.044C17.5411 22.044 22.0411 17.544 22.0411 12C22.0411 6.45597 17.5531 1.94397 11.9971 1.94397C6.44112 1.94397 1.95312 6.44397 1.95312 12C1.95312 17.556 6.45312 22.044 11.9971 22.044Z" fill="#EC8103"/>
<path d="M12 21C16.968 21 21 16.968 21 12C21 7.032 16.968 3 12 3C7.032 3 3 7.032 3 12C3 16.968 7.032 21 12 21Z" fill="#FF9900"/>
<path opacity="0.2" d="M3.25 13.944C3.466 14.94 3.862 15.888 4.39 16.74L17.314 4.78801C16.498 4.18801 15.586 3.73201 14.614 3.43201L3.25 13.944Z" fill="white"/>
<path opacity="0.2" d="M18.1004 5.42401L4.98438 17.568C5.21238 17.856 5.46438 18.132 5.74038 18.396L18.8684 6.22801C18.6284 5.94001 18.3644 5.67601 18.0884 5.42401H18.1004Z" fill="white"/>
<path opacity="0.2" d="M20.7107 9.91202C20.4947 8.98802 20.1227 8.10002 19.6307 7.29602L6.71875 19.248C7.48675 19.812 8.33875 20.244 9.23875 20.532L20.7227 9.91202H20.7107Z" fill="white"/>
<path d="M18.2762 11.712C18.6242 11.376 18.7442 10.884 18.6002 10.416C18.4562 9.95999 18.0602 9.62399 17.5802 9.55199L14.5562 9.10799C14.3402 9.07199 14.1482 8.93999 14.0522 8.74799L12.6962 5.99999C12.4802 5.56799 12.0482 5.29199 11.5682 5.29199C11.0882 5.29199 10.6562 5.55599 10.4402 5.99999L9.08422 8.74799C8.98822 8.93999 8.79622 9.08399 8.58022 9.10799L5.55622 9.55199C5.07622 9.62399 4.69222 9.94799 4.53622 10.416C4.39222 10.872 4.51222 11.376 4.86022 11.712L7.04422 13.848C7.20022 14.004 7.27222 14.22 7.23622 14.436L6.72022 17.448C6.63622 17.928 6.82822 18.396 7.22422 18.684C7.62022 18.972 8.12422 19.008 8.55622 18.78L11.2682 17.352C11.4602 17.256 11.6882 17.256 11.8802 17.352L14.5922 18.78C14.7842 18.876 14.9762 18.924 15.1802 18.924C15.4442 18.924 15.6962 18.84 15.9242 18.684C16.3202 18.396 16.5122 17.928 16.4282 17.448L15.9122 14.436C15.8762 14.22 15.9482 14.004 16.1042 13.848L18.2882 11.712H18.2762Z" fill="#EC8103"/>
<path d="M13.0205 5.376L14.3765 8.112C14.5205 8.4 14.7845 8.592 15.0965 8.64L18.1205 9.084C18.9125 9.204 19.2245 10.164 18.6485 10.728L16.4645 12.864C16.2365 13.08 16.1285 13.404 16.1885 13.716L16.7045 16.728C16.8365 17.52 16.0085 18.12 15.3125 17.748L12.6005 16.32C12.3245 16.176 11.9885 16.176 11.7005 16.32L8.98846 17.748C8.28046 18.12 7.45246 17.52 7.59646 16.728L8.11246 13.716C8.16046 13.404 8.06446 13.08 7.83646 12.864L5.65246 10.728C5.07646 10.176 5.40046 9.204 6.18046 9.084L9.20446 8.64C9.51646 8.592 9.79246 8.4 9.92446 8.112L11.2805 5.376C11.6285 4.656 12.6485 4.656 13.0085 5.376H13.0205Z" fill="#F9DF58"/>
</g>
<defs>
<clipPath id="clip0_1309_1871">
<rect width="24" height="24" fill="white"/>
</clipPath>
</defs>
</svg>
