<svg width="20" height="20" viewBox="0 0 20 20" fill="none" xmlns="http://www.w3.org/2000/svg">
<path d="M10 0C4.5 0 0 4.5 0 10C0 15.5 4.5 20 10 20C15.5 20 20 15.5 20 10C20 4.5 15.5 0 10 0ZM10.8333 13.4167V10.8333H13.3333C13.25 11.75 13.1667 12.6667 12.9167 13.5833C12.25 13.5 11.5833 13.4167 10.8333 13.4167ZM12.5 15.1667C12.0833 16.25 11.5 17.25 10.8333 18.0833V15.0833C11.4167 15.0833 11.9167 15.0833 12.5 15.1667ZM10.8333 9.16667V6.66667C11.5833 6.66667 12.25 6.58333 12.9167 6.5C13.0833 7.33333 13.25 8.25 13.25 9.16667H10.8333ZM10.8333 5V1.91667C11.5 2.75 12.0833 3.75 12.5 4.83333C11.9167 4.91667 11.4167 5 10.8333 5ZM13.0833 2.25C14.0833 2.66667 15.0833 3.25 15.8333 4C15.3333 4.16667 14.75 4.33333 14.1667 4.5C13.8333 3.75 13.5 3 13.0833 2.25ZM7.08333 13.5833C6.91667 12.75 6.75 11.8333 6.66667 10.8333H9.16667V13.4167C8.41667 13.4167 7.75 13.5 7.08333 13.5833ZM9.16667 15.0833V18.0833C8.5 17.25 7.91667 16.3333 7.5 15.1667C8.08333 15.0833 8.58333 15.0833 9.16667 15.0833ZM6.66667 9.16667C6.75 8.25 6.83333 7.33333 7 6.5C7.75 6.58333 8.41667 6.66667 9.16667 6.66667V9.16667H6.66667ZM7.5 4.83333C7.91667 3.75 8.5 2.75 9.16667 1.91667V5C8.58333 5 8.08333 4.91667 7.5 4.83333ZM5.83333 4.58333C5.25 4.41667 4.66667 4.25 4.16667 4.08333C4.91667 3.33333 5.91667 2.66667 6.91667 2.33333C6.5 3 6.16667 3.75 5.83333 4.58333ZM5.41667 6.16667C5.16667 7.08333 5 8.08333 5 9.16667H1.75C1.91667 7.75 2.33333 6.5 3.08333 5.41667C3.75 5.66667 4.58333 6 5.41667 6.16667ZM5.41667 13.9167C4.58333 14.0833 3.83333 14.3333 3.08333 14.6667C2.33333 13.5833 1.83333 12.25 1.75 10.8333H5C5 11.9167 5.16667 12.9167 5.41667 13.9167ZM5.83333 15.5C6.08333 16.3333 6.5 17.0833 6.91667 17.75C5.91667 17.3333 5 16.75 4.16667 16C4.75 15.75 5.25 15.5833 5.83333 15.5ZM14.1667 15.5C14.75 15.6667 15.3333 15.8333 15.8333 16C15.0833 16.75 14.1667 17.3333 13.0833 17.75C13.5 17 13.8333 16.25 14.1667 15.5ZM14.5833 13.9167C14.8333 12.9167 14.9167 11.9167 15 10.8333H18.25C18.0833 12.25 17.6667 13.5 16.9167 14.6667C16.1667 14.3333 15.4167 14.0833 14.5833 13.9167ZM15 9.16667C14.9167 8.08333 14.8333 7.08333 14.5833 6.16667C15.4167 6 16.1667 5.75 16.9167 5.41667C17.6667 6.5 18.1667 7.83333 18.25 9.16667H15Z" fill="#BE1E2D"/>
</svg>
